<?xml version="1.0" encoding="UTF-8"?>
<svg id="Layer_1" xmlns="http://www.w3.org/2000/svg" version="1.1" viewBox="0 0 512 512">
  <!-- Generator: Adobe Illustrator 30.1.0, SVG Export Plug-In . SVG Version: 2.1.1 Build 136)  -->
  <defs>
    <style>
      .st0 {
        fill: #fff;
      }

      .st1 {
        fill: #0072fc;
      }
    </style>
  </defs>
  <rect class="st1" width="512" height="512" rx="170.91" ry="170.91"/>
  <g>
    <g>
      <path class="st0" d="M95.5,193.38h35.64l30.23,73.72h1.4l30.23-73.72h35.64v119.07h-28.02v-73.14h-.99l-28.61,72.38h-17.91l-28.6-72.79h-.99v73.55h-28.02v-119.07Z"/>
      <path class="st0" d="M354.74,236.52h-29.07c-.39-2.98-1.18-5.68-2.38-8.08-1.2-2.4-2.79-4.46-4.77-6.16-1.98-1.71-4.31-3.01-7.01-3.92-2.69-.91-5.67-1.37-8.92-1.37-5.78,0-10.75,1.42-14.91,4.24-4.17,2.83-7.37,6.92-9.59,12.27-2.23,5.35-3.34,11.82-3.34,19.42s1.13,14.53,3.4,19.86c2.27,5.33,5.46,9.34,9.59,12.04s9.02,4.04,14.68,4.04c3.18,0,6.08-.41,8.69-1.22,2.62-.81,4.92-2.01,6.92-3.58,2-1.57,3.64-3.49,4.94-5.76,1.3-2.27,2.2-4.83,2.7-7.7l29.07.17c-.5,5.27-2.03,10.46-4.56,15.58-2.54,5.12-6.02,9.78-10.44,13.98-4.42,4.21-9.8,7.55-16.13,10.03-6.34,2.48-13.6,3.72-21.77,3.72-10.78,0-20.42-2.37-28.92-7.12-8.51-4.75-15.22-11.68-20.15-20.79-4.92-9.11-7.38-20.19-7.38-33.26s2.5-24.21,7.5-33.31c5-9.11,11.76-16.03,20.29-20.76,8.53-4.73,18.08-7.09,28.66-7.09,7.21,0,13.88,1,20,2.99,6.12,2,11.51,4.9,16.16,8.72,4.65,3.82,8.43,8.5,11.34,14.04,2.91,5.54,4.71,11.88,5.41,19.01Z"/>
      <path class="st0" d="M371.14,312.45v-119.07h49.19c8.92,0,16.62,1.73,23.11,5.2,6.49,3.47,11.5,8.29,15.03,14.48,3.53,6.18,5.29,13.36,5.29,21.54s-1.79,15.4-5.38,21.54c-3.59,6.14-8.69,10.9-15.32,14.27-6.63,3.37-14.5,5.06-23.61,5.06h-30.35v-22.67h25c4.34,0,7.97-.76,10.9-2.27,2.93-1.51,5.15-3.63,6.66-6.37,1.51-2.73,2.27-5.92,2.27-9.56s-.76-6.87-2.27-9.56c-1.51-2.69-3.74-4.78-6.69-6.25-2.95-1.47-6.57-2.21-10.87-2.21h-14.19v95.87h-28.78Z"/>
    </g>
    <path class="st0" d="M343.97,342c-7.55,8.68-23.92,22.71-36.13,29.58-28.03,15.78-62.61,25.22-106.01,28.94-61.95,5.31-107.3-8.73-133.97-41.46l-10.04-12.32,1.53,8.72c2.18,12.48,15.93,34.6,27.65,44.51,47.94,40.51,139.39,47.72,228.96,18.06,32.63-10.81,54.74-22.25,81.27-42.06,10.64-7.95,27.42-25.52,33.37-33.98h-86.62Z"/>
    <path class="st0" d="M316.24,155.58l5.99,6.33h114.49l-15.81-15.87c-28.4-28.51-55.38-44.34-92.14-54.06-23.28-6.16-63.56-9.9-84.06-7.81-52.58,5.35-112.53,22.45-157.5,44.91-13.72,6.85-22.14,11.64-18.71,10.64,48.83-14.25,63.23-17.84,87.23-21.74,72.71-11.79,125.49.57,160.51,37.6Z"/>
  </g>
</svg>